# AST/ASF file generated using VICON BodyLanguage
# -----------------------------------------------
:version 1.10
:name VICON
:units
  mass 1.0
  length 0.45
  angle deg
:documentation
   .ast/.asf automatically generated from VICON data using
   VICON BodyBuilder and BodyLanguage model FoxedUp or BRILLIANT.MOD
:root
   order TX TY TZ RX RY RZ
   axis XYZ
   position 0 0 0  
   orientation 0 0 0 
:bonedata
  begin
     id 1 
     name lhipjoint
     direction 0.734343 -0.627749 0.258209 
     length 2.5437 
     axis 0 0 0  XYZ
  end
  begin
     id 2 
     name lfemur
     direction 0.34202 -0.939693 0  
     length 6.7391  
     axis 0 0 20  XYZ
    dof rx ry rz
    limits (-160.0 20.0)
           (-70.0 70.0)
           (-60.0 70.0)
  end
  begin
     id 3 
     name ltibia
     direction 0.34202 -0.939693 0   
     length 7.21536   
     axis 0 0 20   XYZ
    dof rx
    limits (-10.0 170.0)
  end
  begin
     id 4 
     name lfoot
     direction 0.0489572 -0.134509 0.989702   
     length 1.61313   
     axis -90 7.62852e-016 20   XYZ
    dof rx rz
    limits (-45.0 90.0)
           (-70.0 20.0)
  end
  begin
     id 5 
     name ltoes
     direction 1.53451e-011 -4.21692e-011 1   
     length 0.823104   
     axis -90 7.62852e-016 20   XYZ
    dof rx
    limits (-90.0 20.0)
  end
  begin
     id 6 
     name rhipjoint
     direction -0.746398 -0.615468 0.253157   
     length 2.59446  
     axis 0 0 0  XYZ 
  end
  begin
     id 7 
     name rfemur
     direction -0.34202 -0.939693 0   
     length 6.7075   
     axis 0 0 -20   XYZ
    dof rx ry rz
    limits (-160.0 20.0)
           (-70.0 70.0)
           (-70.0 60.0)
  end
  begin
     id 8 
     name rtibia
     direction -0.34202 -0.939693 0   
     length 7.27262   
     axis 0 0 -20   XYZ
    dof rx
    limits (-10.0 170.0)
 end
 begin
     id 9 
     name rfoot
     direction -0.0455203 -0.125066 0.991104   
     length 1.91095  
     axis -90 -7.62852e-016 -20   XYZ
    dof rx rz
    limits (-45.0 90.0)
           (-20.0 70.0)
  end
  begin
     id 10 
     name rtoes
     direction -1.53601e-011 -4.21913e-011 1   
     length 0.969037   
     axis -90 -7.62852e-016 -20   XYZ
    dof rx
    limits (-90.0 20.0)
  end
  begin
     id 11 
     name lowerback
     direction 0.0181546 0.999122 -0.0377542   
     length 1.99916   
     axis 0 0 0   XYZ
    dof rx ry rz
    limits (-20.0 45.0)
           (-30.0 30.0)
           (-30.0 30.0)
  end
  begin
     id 12 
     name upperback
     direction 0.0203486 0.99589 0.0882534   
     length 1.951   
     axis 0 0 0   XYZ
    dof rx ry rz
    limits (-20.0 45.0)
           (-30.0 30.0)
           (-30.0 30.0)
  end
  begin
     id 13 
     name thorax
     direction 0.0131685 0.994241 0.106355   
     length 1.97461   
     axis 0 0 0   XYZ
    dof rx ry rz
    limits (-20.0 45.0)
           (-30.0 30.0)
           (-30.0 30.0)
  end
  begin
     id 14 
     name lowerneck
     direction -0.0281395 0.999325 0.023617   
     length 1.7959   
     axis 0 0 0   XYZ
    dof rx ry rz
    limits (-20.0 45.0)
           (-30.0 30.0)
           (-30.0 30.0)
  end
  begin
     id 15 
     name upperneck
     direction 0.0288721 0.991984 -0.123019   
     length 1.79917   
     axis 0 0 0   XYZ
    dof rx ry rz
    limits (-20.0 45.0)
           (-30.0 30.0)
           (-30.0 30.0)
  end
  begin
     id 16
     name head
     direction 0.0133797 0.998944 -0.0439492  
     length 1.80902  
     axis 0 0 0   XYZ
    dof rx ry rz
    limits (-20.0 45.0)
           (-30.0 30.0)
           (-30.0 30.0)
  end
  begin
     id 17 
     name lclavicle
     direction 0.919195 0.377107 0.113449  
     length 3.17815  
     axis 0 0 0   XYZ
    dof ry rz
    limits (-20.0 10.0)
           (0.0 20.0)
  end
  begin
     id 18 
     name lhumerus
     direction 1 -4.48959e-011 2.13129e-027   
     length 4.84137   
     axis 180 -30 -90   XYZ
    dof rx ry rz
    limits (-60.0 90.0)
           (-90.0 90.0)
           (-90.0 90.0)
  end
  begin
     id 19
     name lradius
     direction 1 -4.48957e-011 -6.30627e-028   
     length 3.2452   
     axis 180 -30 -90   XYZ
    dof rx
    limits (-10.0 170.0)
  end
  begin
     id 20
     name lwrist
     direction 1 -4.4901e-011 9.13299e-027   
     length 1.6226   
     axis -6.84618e-015 90 90   XYZ
    dof ry
    limits (-180.0 0.0)
 end
  begin
     id 21 
     name lhand
     direction 1 -4.48816e-011 1.82293e-026   
     length 0.521221   
     axis -1.16502e-014 90 90   XYZ
    dof rx rz
    limits (-90.0 90.0)
           (-45.0 45.0)
  end
  begin
     id 22 
     name lfingers
     direction 1 -4.49108e-011 3.65687e-026   
     length 0.420221   
     axis -2.33008e-014 90 90   XYZ
    dof rx
    limits (0.0 90.0)
  end
  begin
     id 23
     name lthumb
     direction 0.707107 -6.34943e-011 0.707107   
     length 0.603356   
     axis -90 45 5.69224e-014   XYZ
    dof rx rz
    limits (-45.0 45.0)
           (-45.0 45.0)
  end
  begin
     id 24 
     name rclavicle
     direction -0.90847 0.38596 0.160368   
     length 3.12973  
     axis 0 0 0   XYZ 
    dof ry rz
    limits (-10.0 20.0)
           (-20.0 0.0)
  end
  begin
     id 25 
     name rhumerus
     direction -1 -4.48974e-011 4.47268e-028  
     length 4.72284   
     axis 180 30 90   XYZ
    dof rx ry rz
    limits (-90.0 60.0)
           (-90.0 90.0)
           (-90.0 90.0)
  end
  begin
     id 26 
     name rradius
     direction -1 -4.48969e-011 3.43203e-027   
     length 3.23459   
     axis 180 30 90   XYZ
    dof rx
    limits (-10.0 170.0)
  end
  begin
     id 27 
     name rwrist
     direction -1 -4.48969e-011 9.12911e-027   
     length 1.6173   
     axis -6.84618e-015 -90 -90   XYZ
    dof ry
    limits (-180.0 0.0)
  end
  begin
     id 28
     name rhand
     direction -1 -4.49194e-011 1.83006e-026   
     length 0.307416   
     axis -1.16502e-014 -90 -90   XYZ
    dof rx rz
    limits (-90.0 90.0)
           (-45.0 45.0)
  end
  begin
     id 29
     name rfingers
     direction -1 -4.48423e-011 3.63103e-026   
     length 0.247847   
     axis -2.33008e-014 -90 -90   XYZ
    dof rx
    limits (0.0 90.0)
  end
  begin
     id 30
     name rthumb
     direction -0.707107 -6.34802e-011 0.707107   
     length 0.35586   
     axis -90 -45 -5.69224e-014   XYZ
    dof rx rz
    limits (-45.0 45.0)
           (-45.0 45.0)
  end
:hierarchy
  begin
    root lhipjoint rhipjoint lowerback
    lhipjoint lfemur
    lfemur ltibia
    ltibia lfoot
    lfoot ltoes
    rhipjoint rfemur
    rfemur rtibia
    rtibia rfoot
    rfoot rtoes
    lowerback upperback
    upperback thorax
    thorax lowerneck lclavicle rclavicle
    lowerneck upperneck
    upperneck head
    lclavicle lhumerus
    lhumerus lradius
    lradius lwrist
    lwrist lhand lthumb
    lhand lfingers
    rclavicle rhumerus
    rhumerus rradius
    rradius rwrist
    rwrist rhand rthumb
    rhand rfingers
  end

#!OML:ASF H:\Terrain\Patient Classification 1\Animal1\Tuesday\Animal1.ASF
:FULLY-SPECIFIED
:DEGREES
561
root 8.93062 16.1015 -12.6442 12.4388 -28.2544 -362.539
lowerback 6.92376 1.65509 1.5567
upperback -0.657509 2.28193 -1.18936
thorax -4.45542 1.07763 -2.34877
lowerneck -10.5227 2.91979 -5.57558
upperneck -11.6901 4.7467 6.46154
head -2.29534 2.47603 3.16174
rclavicle 2.5345e-014 2.42517e-014
rhumerus -46.5308 1.18033 -41.986
rradius 14.6447
rwrist -4.98187
rhand 8.23142 14.2384
rfingers 7.12502
rthumb 33.447 -12.6664
lclavicle 2.5345e-014 2.42517e-014
lhumerus -58.743 14.0995 28.4287
lradius 18.012
lwrist -35.6793
lhand 15.5877 60.73
lfingers 7.12502
lthumb -139.595 -94.1673
rfemur -8.60228 -2.26464 23.5344
rtibia 33.671
rfoot -28.4813 -42.701
rtoes 42.8199
lfemur -40.0121 2.84856 -17.2247
ltibia 29.5765
lfoot -5.56408 21.7003
ltoes 8.73465
562
root 8.93603 16.1161 -12.5322 12.1297 -27.4517 -362.578
lowerback 6.68797 1.54378 1.75094
upperback -0.504454 2.1464 -1.18799
thorax -4.16313 1.01167 -2.43033
lowerneck -10.6583 2.8831 -5.58872
upperneck -11.5546 4.71124 6.61024
head -2.22878 2.461 3.21838
rclavicle -8.24956e-015 -1.55052e-014
rhumerus -45.6534 3.30981 -40.1606
rradius 15.1456
rwrist -6.84709
rhand 8.41397 12.1817
rfingers 7.12502
rthumb 33.6205 -14.6855
lclavicle -8.24956e-015 -1.55052e-014
lhumerus -57.2188 13.0571 26.6508
lradius 18.1059
lwrist -35.2734
lhand 16.0114 61.1695
lfingers 7.12502
lthumb -139.197 -93.8518
rfemur -8.60323 -3.06592 23.2008
rtibia 35.1379
rfoot -25.1355 -42.497
rtoes 43.6397
lfemur -39.5464 2.51302 -17.4744
ltibia 29.8403
lfoot -6.02414 21.0486
ltoes 10.2337
563
root 8.9383 16.1335 -12.4248 11.9445 -26.7019 -362.774
lowerback 6.42362 1.44174 1.98491
upperback -0.365936 2.02693 -1.12891
thorax -3.87099 0.953918 -2.47675
lowerneck -11.0613 2.87071 -5.69717
upperneck -11.1475 4.72165 6.84567
head -2.0338 2.47819 3.32906
rclavicle 1.38155e-014 -1.19271e-015
rhumerus -44.6309 4.98122 -37.8056
rradius 15.4092
rwrist -7.43402
rhand 8.12324 11.2082
rfingers 7.12502
rthumb 33.3442 -15.7187
lclavicle 1.38155e-014 -1.19271e-015
lhumerus -55.645 11.7643 25.0477
lradius 18.2981
lwrist -34.6027
lhand 16.4638 61.2808
lfingers 7.12502
lthumb -138.772 -93.8756
rfemur -8.7821 -3.74036 23.014
rtibia 36.7905
rfoot -20.9598 -42.2225
rtoes 43.7409
lfemur -39.147 2.2983 -17.5564
ltibia 30.0673
lfoot -6.61833 20.3928
ltoes 13.0793
564
root 8.9394 16.1502 -12.322 11.7155 -25.9827 -362.876
lowerback 6.18881 1.34585 2.01872
upperback -0.256502 1.90062 -1.04228
thorax -3.63432 0.896126 -2.38456
lowerneck -11.3314 2.8916 -5.73201
upperneck -10.8553 4.76084 6.96506
head -1.89693 2.50536 3.38361
rclavicle -1.75924e-014 2.38542e-015
rhumerus -43.5418 6.89604 -35.4624
rradius 15.656
rwrist -7.75122
rhand 9.37515 10.5293
rfingers 7.12502
rthumb 34.5334 -16.1344
lclavicle -1.75924e-014 2.38542e-015
lhumerus -53.9615 10.0453 23.7955
lradius 18.5598
lwrist -33.7264
lhand 17.3869 61.4945
lfingers 7.12502
lthumb -137.907 -93.9468
rfemur -9.1075 -4.27462 22.721
rtibia 38.6799
rfoot -16.1268 -41.7274
rtoes 42.6159
lfemur -38.7535 2.09145 -17.7166
ltibia 30.2608
lfoot -7.07095 19.7139
ltoes 15.4326
565
root 8.94431 16.1591 -12.2213 11.4654 -25.2682 -363.044
lowerback 6.03612 1.26723 2.16278
upperback -0.123952 1.8052 -0.972491
thorax -3.41434 0.851391 -2.37766
lowerneck -11.4347 2.87866 -5.55468
upperneck -10.8815 4.73059 6.94171
head -1.87989 2.48572 3.34313
rclavicle 3.73715e-014 5.1684e-015
rhumerus -42.6647 9.72229 -33.8036
rradius 16.0256
rwrist -8.71336
rhand 10.2922 9.62365
rfingers 7.12502
rthumb 35.4034 -16.8372
lclavicle 3.73715e-014 5.1684e-015
lhumerus -51.9826 8.13223 22.6419
lradius 18.6684
lwrist -33.0238
lhand 18.6618 61.9003
lfingers 7.12502
lthumb -136.714 -93.9558
rfemur -9.51632 -4.82684 22.4119
rtibia 40.8179
rfoot -10.4749 -40.5837
rtoes 40.6234
lfemur -38.301 1.77444 -17.7662
ltibia 30.4369
lfoot -7.2745 19.0921
ltoes 16.8412
566
root 8.95075 16.1682 -12.1309 11.139 -24.6502 -363.156
lowerback 6.06485 1.22695 2.24131
upperback -0.00490783 1.75826 -0.926537
thorax -3.30903 0.829821 -2.36886
lowerneck -11.4194 2.85233 -5.41796
upperneck -11.065 4.69009 6.93917
head -1.93725 2.45925 3.31525
rclavicle -4.01545e-014 2.0276e-014
rhumerus -42.0023 12.8288 -32.1746
rradius 16.3999
rwrist -9.2325
rhand 10.2974 8.80116
rfingers 7.12502
rthumb 35.4083 -17.6586
lclavicle -4.01545e-014 2.0276e-014
lhumerus -49.8975 6.09754 21.4563
lradius 18.6451
lwrist -32.7228
lhand 20.5079 61.8425
lfingers 7.12502
lthumb -134.992 -94.6611
rfemur -10.0675 -5.44782 21.9991
rtibia 43.2016
rfoot -5.13598 -38.8178
rtoes 37.5904
lfemur -37.7706 1.47228 -17.8427
ltibia 30.5728
lfoot -7.56994 18.6082
ltoes 18.2938
567
root 8.95337 16.1761 -12.0555 10.7771 -24.1292 -363.04
lowerback 6.15716 1.18705 1.95555
upperback 0.0686987 1.68712 -0.890147
thorax -3.29787 0.800029 -2.16588
lowerneck -11.4194 2.87942 -5.44986
upperneck -11.1502 4.74043 7.02608
head -1.97355 2.48508 3.35263
rclavicle -7.85199e-015 2.14687e-014
rhumerus -41.3392 16.3856 -30.5772
rradius 16.7813
rwrist -9.97449
rhand 11.279 8.03891
rfingers 7.12502
rthumb 36.3384 -18.1938
lclavicle -7.85199e-015 2.14687e-014
lhumerus -48.0066 4.31694 19.9991
lradius 18.7103
lwrist -32.9452
lhand 22.5694 61.5934
lfingers 7.12502
lthumb -133.079 -95.7055
rfemur -10.8482 -5.99142 21.3988
rtibia 45.7981
rfoot -1.01004 -36.4445
rtoes 34.689
lfemur -37.3009 1.30918 -18.1729
ltibia 30.6515
lfoot -7.40813 18.2391
ltoes 16.6978
568
root 8.95501 16.1813 -11.9806 10.3712 -23.6406 -362.864
lowerback 6.24459 1.11172 1.56347
upperback 0.163332 1.56109 -0.839495
thorax -3.26716 0.744865 -1.88309
lowerneck -11.4077 2.96718 -5.46597
upperneck -11.2264 4.86491 7.04316
head -2.01176 2.54756 3.36305
rclavicle -4.6615e-014 3.18055e-014
rhumerus -40.4475 19.765 -28.6603
rradius 17.1369
rwrist -10.5591
rhand 12.6527 7.58931
rfingers 7.12502
rthumb 37.6378 -18.3075
lclavicle -4.6615e-014 3.18055e-014
lhumerus -46.3763 3.00622 18.1175
lradius 19.0356
lwrist -33.6534
lhand 24.8 61.6304
lfingers 7.12502
lthumb -131.023 -96.626
rfemur -11.6491 -6.48171 20.7068
rtibia 48.548
rfoot 1.91517 -33.2001
rtoes 32.4203
lfemur -36.7739 1.19255 -18.5692
ltibia 30.6765
lfoot -7.21841 17.8104
ltoes 14.6075
569
root 8.95928 16.1896 -11.9051 9.86845 -23.0288 -362.71
lowerback 6.43797 1.00099 1.28089
upperback 0.300033 1.39637 -0.786217
thorax -3.24937 0.66848 -1.65735
lowerneck -11.4123 3.0401 -5.41662
upperneck -11.3161 4.95866 6.97675
head -2.04466 2.59292 3.33138
rclavicle -8.05078e-015 0
rhumerus -39.328 22.1995 -26.0864
rradius 17.3836
rwrist -10.1845
rhand 13.4589 7.06676
rfingers 7.12502
rthumb 38.3991 -18.6227
lclavicle -8.05078e-015 0
lhumerus -44.7187 1.8173 16.0861
lradius 19.3938
lwrist -34.2775
lhand 27.0046 61.609
lfingers 7.12502
lthumb -129.005 -97.7068
rfemur -12.3899 -7.16015 19.9969
rtibia 51.4044
rfoot 4.33023 -29.6212
rtoes 28.1869
lfemur -36.1287 0.91613 -18.9007
ltibia 30.7085
lfoot -7.52531 17.3896
ltoes 13.6711
570
root 8.96299 16.193 -11.8389 9.42951 -22.4083 -362.675
lowerback 6.7018 0.881191 1.1107
upperback 0.498989 1.22577 -0.781127
thorax -3.20154 0.587412 -1.54392
lowerneck -11.6652 3.12784 -5.23638
upperneck -11.3758 5.06755 6.94151
head -2.02338 2.64465 3.29119
rclavicle 1.68967e-015 1.31198e-014
rhumerus -38.1536 24.4799 -23.6232
rradius 17.4706
rwrist -10.3127
rhand 13.4786 6.55634
rfingers 7.12502
rthumb 38.4177 -19.128
lclavicle 1.68967e-015 1.31198e-014
lhumerus -42.7565 1.06499 13.7125
lradius 19.4218
lwrist -34.7095
lhand 28.7769 61.2279
lfingers 7.12502
lthumb -127.396 -99.0322
rfemur -13.2521 -7.71218 19.4649
rtibia 54.3405
rfoot 4.93973 -26.4678
rtoes 24.0658
lfemur -35.5338 0.599003 -19.0757
ltibia 30.7701
lfoot -8.16821 17.0395
ltoes 14.9695
